<svg width="1024" height="1024" viewBox="0 0 1024 1024" fill="none" xmlns="http://www.w3.org/2000/svg">
<rect width="1024" height="1024" fill="#EAEAEA" style="fill:#EAEAEA;fill:color(display-p3 0.9161 0.9161 0.9161);fill-opacity:1;"/>
<rect x="104.5" y="104.5" width="814" height="814" rx="177.5" stroke="#161616" style="stroke:#161616;stroke:color(display-p3 0.0857 0.0857 0.0857);stroke-opacity:1;" stroke-width="41"/>
<path d="M512 323C615.56 323 716.344 386.205 795.804 500.701L802.821 510.804L803.222 511.381L802.815 511.953L790.462 529.373L790.46 529.376C710.943 640.615 611.552 701.955 510.087 701.955C508.941 702.013 507.794 702.013 506.648 701.955C404.076 700.381 305.094 636.243 227.842 521.516L221.172 511.645L220.789 511.078L221.178 510.516L227.964 500.703L227.965 500.701C307.425 386.205 408.441 323 512 323ZM512 359.839C423.923 359.839 336.779 413.427 265.57 511.44C334.815 609.396 420.225 663.732 507.142 664.885L509.23 664.903C597.468 665.242 685.526 610.977 758.189 511.2C686.982 413.366 600.074 359.839 512 359.839Z" fill="#161616" stroke="#161616" style="fill:#161616;fill:color(display-p3 0.0857 0.0857 0.0857);fill-opacity:1;stroke:#161616;stroke:color(display-p3 0.0857 0.0857 0.0857);stroke-opacity:1;" stroke-width="2"/>
<rect x="200" y="200" width="58" height="57" rx="28.5" fill="#FF736A" style="fill:#FF736A;fill:color(display-p3 1.0000 0.4510 0.4157);fill-opacity:1;"/>
<rect x="200.25" y="200.25" width="57.5" height="56.5" rx="28.25" stroke="black" stroke-opacity="0.1" style="stroke:black;stroke-opacity:0.1;" stroke-width="0.5"/>
<rect x="296" y="200" width="57" height="57" rx="28.5" fill="#FEBC2E" style="fill:#FEBC2E;fill:color(display-p3 0.9961 0.7373 0.1804);fill-opacity:1;"/>
<rect x="296.25" y="200.25" width="56.5" height="56.5" rx="28.25" stroke="black" stroke-opacity="0.1" style="stroke:black;stroke-opacity:0.1;" stroke-width="0.5"/>
<rect x="390" y="200" width="58" height="57" rx="28.5" fill="#19C332" style="fill:#19C332;fill:color(display-p3 0.0980 0.7647 0.1961);fill-opacity:1;"/>
<rect x="390.25" y="200.25" width="57.5" height="56.5" rx="28.25" stroke="black" stroke-opacity="0.1" style="stroke:black;stroke-opacity:0.1;" stroke-width="0.5"/>
<circle cx="512" cy="513" r="104" fill="#0171E4" style="fill:#0171E4;fill:color(display-p3 0.0039 0.4431 0.8941);fill-opacity:1;"/>
<rect x="402" y="402" width="110" height="110" fill="#EAEAEA" style="fill:#EAEAEA;fill:color(display-p3 0.9161 0.9161 0.9161);fill-opacity:1;"/>
</svg>
